<svg width="129" height="129" viewBox="0 0 129 129" fill="none" xmlns="http://www.w3.org/2000/svg">
<g clip-path="url(#clip0_840_12)">
<path d="M127.468 66.8269L124.64 70.4852C124.223 71.0241 123.956 71.6645 123.868 72.3405C123.78 73.0165 123.873 73.7039 124.138 74.332L125.935 78.5904C126.267 79.377 126.327 80.2518 126.107 81.0767C125.887 81.9016 125.398 82.6295 124.717 83.1456L121.025 85.9416C120.482 86.3533 120.058 86.902 119.797 87.5313C119.537 88.1606 119.448 88.848 119.54 89.5229L120.168 94.1064C120.285 94.9522 120.117 95.8128 119.69 96.5523C119.264 97.2919 118.603 97.8682 117.812 98.1904L113.524 99.9214C112.892 100.178 112.341 100.599 111.925 101.14C111.51 101.68 111.246 102.322 111.16 102.999L110.574 107.591C110.467 108.437 110.082 109.224 109.479 109.826C108.876 110.429 108.09 110.815 107.244 110.922L102.654 111.501C101.978 111.587 101.337 111.851 100.796 112.266C100.256 112.682 99.8356 113.234 99.5788 113.865L97.8415 118.142C97.5193 118.933 96.943 119.594 96.2034 120.021C95.4639 120.447 94.6033 120.615 93.7575 120.498L89.174 119.87C88.4991 119.778 87.8117 119.867 87.1824 120.128C86.5531 120.388 86.0044 120.812 85.5927 121.355L82.8045 125.054C82.2885 125.734 81.5605 126.223 80.7356 126.443C79.9107 126.664 79.0359 126.603 78.2493 126.271L73.991 124.471C73.3628 124.206 72.6755 124.113 71.9994 124.201C71.3234 124.289 70.6831 124.556 70.1441 124.974L66.4858 127.801C65.8119 128.324 64.9829 128.608 64.1297 128.608C63.2764 128.608 62.4475 128.324 61.7735 127.801L58.1152 124.974C57.5762 124.556 56.9359 124.289 56.2599 124.201C55.5839 124.113 54.8965 124.206 54.2684 124.471L50.01 126.268C49.2234 126.6 48.3486 126.661 47.5237 126.44C46.6988 126.22 45.9709 125.731 45.4548 125.051L42.6604 121.367C42.2486 120.824 41.7 120.401 41.0707 120.14C40.4413 119.879 39.754 119.79 39.079 119.883L34.4955 120.511C33.6498 120.628 32.7892 120.46 32.0496 120.033C31.3101 119.606 30.7337 118.946 30.4115 118.155L28.6696 113.873C28.4126 113.241 27.9921 112.689 27.4514 112.274C26.9106 111.859 26.269 111.594 25.5924 111.509L21.0152 110.917C20.1693 110.81 19.3831 110.425 18.7802 109.822C18.1773 109.219 17.7921 108.433 17.6852 107.587L17.1056 102.997C17.0198 102.321 16.7556 101.679 16.3402 101.139C15.9248 100.598 15.373 100.178 14.7415 99.9214L10.4581 98.1826C9.66738 97.8604 9.00653 97.284 8.57987 96.5445C8.15321 95.8049 7.98504 94.9443 8.10191 94.0986L8.73022 89.5151C8.82251 88.8401 8.73369 88.1528 8.47285 87.5234C8.21201 86.8941 7.78855 86.3455 7.24584 85.9337L3.55767 83.1456C2.87745 82.6295 2.38851 81.9016 2.16807 81.0767C1.94762 80.2518 2.00823 79.377 2.34033 78.5904L4.13729 74.332C4.40234 73.7039 4.49548 73.0165 4.40715 72.3405C4.31882 71.6645 4.05219 71.0241 3.63464 70.4852L0.807257 66.8269C0.284015 66.1529 0 65.324 0 64.4707C0 63.6175 0.284015 62.7885 0.807257 62.1146L3.63464 58.4562C4.05219 57.9173 4.31882 57.277 4.40715 56.6009C4.49548 55.9249 4.40234 55.2376 4.13729 54.6094L2.33876 50.3574C2.00666 49.5708 1.94605 48.6959 2.1665 47.871C2.38694 47.0462 2.87588 46.3182 3.5561 45.8021L7.23956 43.0077C7.78226 42.596 8.20573 42.0473 8.46657 41.418C8.7274 40.7887 8.81623 40.1013 8.72393 39.4264L8.09563 34.8429C7.97875 33.9971 8.14692 33.1365 8.57359 32.397C9.00025 31.6574 9.6611 31.081 10.4518 30.7589L14.7415 29.0232C15.3757 28.7667 15.93 28.3455 16.3469 27.8032C16.7639 27.2608 17.0285 26.617 17.1134 25.9382L17.693 21.3484C17.7999 20.5025 18.1852 19.7162 18.788 19.1134C19.3909 18.5105 20.1772 18.1253 21.0231 18.0184L25.6128 17.4388C26.2894 17.3532 26.931 17.0892 27.4718 16.6738C28.0126 16.2583 28.433 15.7064 28.69 15.0747L30.432 10.7928C30.7541 10.0021 31.3305 9.3413 32.0701 8.91464C32.8096 8.48797 33.6702 8.3198 34.516 8.43667L39.0995 9.06498C39.7744 9.15727 40.4618 9.06845 41.0911 8.80762C41.7204 8.54678 42.2691 8.12331 42.6808 7.5806L45.4752 3.89715C45.9913 3.21693 46.7192 2.72799 47.5441 2.50755C48.369 2.2871 49.2438 2.34771 50.0304 2.6798L54.2888 4.47676C54.9169 4.74182 55.6043 4.83496 56.2803 4.74663C56.9563 4.65829 57.5967 4.39167 58.1356 3.97412L61.7939 1.14673C62.4679 0.623492 63.2969 0.339478 64.1501 0.339478C65.0033 0.339478 65.8323 0.623492 66.5062 1.14673L70.1646 3.97412C70.7035 4.39167 71.3438 4.65829 72.0199 4.74663C72.6959 4.83496 73.3832 4.74182 74.0114 4.47676L78.2697 2.6798C79.0563 2.34771 79.9312 2.2871 80.756 2.50755C81.5809 2.72799 82.3089 3.21693 82.825 3.89715L85.5989 7.58217C86.0107 8.12488 86.5593 8.54835 87.1887 8.80919C87.818 9.07002 88.5053 9.15884 89.1803 9.06655L93.7638 8.43824C94.6096 8.32137 95.4702 8.48954 96.2097 8.91621C96.9493 9.34287 97.5256 10.0037 97.8478 10.7944L99.5788 15.0826C99.8358 15.7143 100.256 16.2662 100.797 16.6816C101.338 17.0971 101.979 17.3611 102.656 17.4466L107.246 18.0262C108.092 18.1331 108.878 18.5183 109.481 19.1212C110.084 19.7241 110.469 20.5104 110.576 21.3562L111.155 25.946C111.241 26.6226 111.505 27.2642 111.92 27.805C112.336 28.3458 112.888 28.7662 113.519 29.0232L117.8 30.7652C118.59 31.0873 119.251 31.6637 119.678 32.4032C120.105 33.1428 120.273 34.0034 120.156 34.8492L119.528 39.4327C119.435 40.1076 119.524 40.795 119.785 41.4243C120.046 42.0536 120.469 42.6023 121.012 43.014L124.711 45.8021C125.391 46.3182 125.88 47.0462 126.101 47.871C126.321 48.6959 126.261 49.5708 125.928 50.3574L124.13 54.6157C123.865 55.2438 123.772 55.9312 123.86 56.6072C123.948 57.2832 124.215 57.9236 124.633 58.4625L127.46 62.1208C127.983 62.7948 128.267 63.6238 128.267 64.477C128.267 65.3302 127.983 66.1592 127.46 66.8332" fill="#B72E2E"/>
<path d="M47.187 91.7536L42.0742 86.2135L80.4874 43.3409L86.1939 48.4868L47.187 91.7536Z" fill="white"/>
<path d="M86.5974 88.1173L80.6346 92.7277L41.2755 50.7383L46.8973 45.5022L86.5974 88.1173Z" fill="white"/>
</g>
<defs>
<clipPath id="clip0_840_12">
<rect width="128.28" height="128.28" fill="white" transform="translate(0 0.333496)"/>
</clipPath>
</defs>
</svg>
