<svg width="30" height="41" viewBox="0 0 30 41" fill="none" xmlns="http://www.w3.org/2000/svg">
<path d="M13.0833 0C8.05208 0 3.5 5.77971 3.5 13.4167C3.5 19.1667 5.41667 23 5.41667 23L11.0974 20.4638C12.2379 21.2782 13.5144 21.8552 14.8727 22.0361L15 22.0529L15.1273 22.0361C16.7776 21.8158 18.3159 21.0289 19.6213 19.9135L24.5833 23C24.5833 23 26.5 19.1667 26.5 13.4167C26.5 5.75 23.1334 1.91667 17.875 1.91667H17.8656C17.8443 1.87552 16.855 0 13.0833 0ZM15.9583 8.625L20.7388 10.5417L20.7425 10.5454V12.4714H21.845C21.8505 12.472 22.061 12.4926 22.2717 12.6156C22.4852 12.7401 22.6573 12.8211 22.6573 13.4279C22.6573 14.0347 22.4852 14.1138 22.2717 14.2384C22.0583 14.3629 21.8394 14.3844 21.8394 14.3844L21.2479 14.418L21.0139 14.9609C19.915 17.4954 17.3772 19.712 15 20.0951C12.623 19.7129 10.085 17.4963 8.98608 14.9609L8.75212 14.418L8.16064 14.3844C8.16064 14.3844 7.94174 14.3629 7.72827 14.2384C7.5148 14.1138 7.34269 14.0347 7.34269 13.4279C7.34269 12.8211 7.5148 12.7401 7.72827 12.6156C7.93897 12.4926 8.14948 12.472 8.15503 12.4714H9.25749V12.4583C11.0569 12.4574 14.7619 12.0947 15.9583 8.625Z" fill="black"/>
<ellipse cx="15" cy="32" rx="15" ry="9" fill="black"/>
</svg>
