<svg width="129" height="129" viewBox="0 0 129 129" fill="none" xmlns="http://www.w3.org/2000/svg">
<g clip-path="url(#clip0_840_2)">
<path d="M127.478 66.5009L124.643 70.1589C124.226 70.6981 123.96 71.3386 123.872 72.0147C123.784 72.6907 123.878 73.378 124.143 74.0059L125.943 78.2639C126.275 79.0506 126.336 79.9254 126.115 80.7502C125.895 81.5751 125.406 82.303 124.725 82.8189L121.041 85.6139C120.498 86.0256 120.075 86.5741 119.814 87.2034C119.553 87.8326 119.464 88.52 119.556 89.1949L120.182 93.7779C120.298 94.6232 120.129 95.483 119.701 96.2215C119.274 96.9601 118.614 97.5355 117.823 97.8569L113.54 99.5989C112.909 99.8559 112.357 100.276 111.941 100.817C111.526 101.358 111.262 101.999 111.176 102.676L110.596 107.265C110.489 108.111 110.104 108.897 109.501 109.5C108.898 110.103 108.112 110.488 107.266 110.595L102.677 111.175C102.001 111.26 101.359 111.524 100.818 111.94C100.277 112.355 99.8562 112.907 99.5992 113.539L97.8572 117.822C97.5358 118.612 96.9604 119.273 96.2218 119.7C95.4833 120.127 94.6235 120.296 93.7782 120.181L89.1952 119.555C88.5203 119.463 87.8329 119.552 87.2037 119.813C86.5744 120.074 86.0259 120.497 85.6142 121.04L82.8192 124.724C82.3033 125.404 81.5754 125.893 80.7505 126.114C79.9257 126.334 79.0509 126.274 78.2642 125.942L73.9992 124.141C73.3713 123.875 72.684 123.782 72.008 123.87C71.3319 123.958 70.6914 124.224 70.1522 124.641L66.4992 127.479C65.8257 128.001 64.9978 128.284 64.1457 128.284C63.2936 128.284 62.4657 128.001 61.7922 127.479L58.1342 124.644C57.595 124.227 56.9545 123.961 56.2785 123.873C55.6024 123.785 54.9152 123.878 54.2872 124.144L50.0292 125.944C49.2426 126.276 48.3678 126.336 47.5429 126.116C46.7181 125.895 45.9902 125.406 45.4742 124.726L42.6792 121.042C42.2676 120.499 41.719 120.076 41.0898 119.815C40.4605 119.554 39.7732 119.465 39.0982 119.557L34.5152 120.183C33.6699 120.298 32.8102 120.129 32.0716 119.702C31.3331 119.275 30.7577 118.614 30.4362 117.824L28.6942 113.541C28.4374 112.909 28.017 112.357 27.4763 111.941C26.9355 111.526 26.2939 111.262 25.6172 111.176L21.0282 110.596C20.1824 110.489 19.3961 110.104 18.7932 109.501C18.1903 108.898 17.8051 108.112 17.6982 107.266L17.1182 102.677C17.0327 102 16.7687 101.359 16.3532 100.818C15.9378 100.277 15.3859 99.8569 14.7542 99.5999L10.4712 97.8579C9.68093 97.5365 9.02012 96.9611 8.59299 96.2225C8.16586 95.484 7.99672 94.6242 8.11222 93.7789L8.73822 89.1959C8.83039 88.521 8.74145 87.8336 8.4805 87.2044C8.21956 86.5751 7.796 86.0266 7.25323 85.6149L3.56423 82.8139C2.88393 82.298 2.39488 81.5701 2.17432 80.7452C1.95376 79.9204 2.01424 79.0456 2.34623 78.2589L4.14323 74.0009C4.40869 73.373 4.50229 72.6857 4.41443 72.0097C4.32656 71.3336 4.06039 70.6931 3.64323 70.1539L0.805225 66.5009C0.283261 65.8274 0 64.9995 0 64.1474C0 63.2953 0.283261 62.4674 0.805225 61.7939L3.64023 58.1309C4.05739 57.5917 4.32356 56.9512 4.41143 56.2752C4.49929 55.5991 4.40569 54.9118 4.14022 54.2839L2.34023 50.0249C2.00913 49.2378 1.94971 48.3627 2.17137 47.538C2.39302 46.7134 2.88311 45.986 3.56423 45.4709L7.24823 42.6759C7.791 42.2643 8.21456 41.7157 8.4755 41.0864C8.73645 40.4572 8.82539 39.7699 8.73322 39.0949L8.10623 34.5109C7.99072 33.6656 8.15986 32.8059 8.58699 32.0673C9.01412 31.3288 9.67493 30.7534 10.4652 30.4319L14.7482 28.6899C15.3801 28.4331 15.9322 28.0127 16.3478 27.472C16.7634 26.9312 17.0276 26.2896 17.1132 25.6129L17.6932 21.0239C17.8001 20.1781 18.1853 19.3918 18.7882 18.7889C19.3911 18.186 20.1774 17.8008 21.0232 17.6939L25.6122 17.1139C26.2888 17.0284 26.9303 16.7644 27.4711 16.3489C28.0118 15.9335 28.4323 15.3816 28.6892 14.7499L30.4312 10.4669C30.7527 9.67662 31.3281 9.01581 32.0666 8.58868C32.8052 8.16155 33.6649 7.99241 34.5102 8.10792L39.0932 8.73392C39.7682 8.82608 40.4555 8.73714 41.0848 8.47619C41.714 8.21525 42.2626 7.79169 42.6742 7.24892L45.4692 3.56492C45.9852 2.88462 46.7131 2.39557 47.5379 2.17501C48.3628 1.95445 49.2376 2.01493 50.0242 2.34692L54.2822 4.14692C54.9102 4.41238 55.5974 4.50599 56.2735 4.41812C56.9495 4.33025 57.59 4.06408 58.1292 3.64692L61.7882 0.800917C62.4621 0.277977 63.2908 -0.00585938 64.1437 -0.00585938C64.9967 -0.00585937 65.8254 0.277977 66.4992 0.800917L70.1532 3.64092C70.6924 4.05808 71.3329 4.32425 72.009 4.41212C72.685 4.49999 73.3723 4.40638 74.0002 4.14092L78.2592 2.34092C79.0457 2.00918 79.9203 1.94883 80.745 2.16938C81.5696 2.38994 82.2973 2.87884 82.8132 3.55892L85.6082 7.24292C86.0193 7.7866 86.5676 8.21113 87.1969 8.47297C87.8262 8.73481 88.5138 8.82453 89.1892 8.73292L93.7722 8.10692C94.6175 7.99141 95.4773 8.16055 96.2158 8.58768C96.9544 9.01481 97.5298 9.67562 97.8512 10.4659L99.5932 14.7489C99.8502 15.3806 100.271 15.9325 100.811 16.3479C101.352 16.7634 101.994 17.0274 102.67 17.1129L107.259 17.6929C108.105 17.7998 108.891 18.185 109.494 18.7879C110.097 19.3908 110.482 20.1771 110.589 21.0229L111.169 25.6119C111.255 26.2886 111.519 26.9304 111.934 27.4714C112.349 28.0123 112.901 28.4329 113.533 28.6899L117.816 30.4319C118.607 30.7534 119.267 31.3288 119.694 32.0673C120.122 32.8059 120.291 33.6656 120.175 34.5109L119.549 39.0939C119.457 39.7689 119.546 40.4562 119.807 41.0854C120.068 41.7147 120.491 42.2633 121.034 42.6749L124.718 45.4699C125.399 45.9859 125.888 46.7138 126.108 47.5386C126.329 48.3634 126.268 49.2383 125.936 50.0249L124.136 54.2829C123.871 54.9108 123.777 55.5981 123.865 56.2742C123.953 56.9502 124.219 57.5907 124.636 58.1299L127.471 61.7879C127.993 62.4614 128.276 63.2893 128.276 64.1414C128.276 64.9935 127.993 65.8214 127.471 66.4949" fill="#2EB758"/>
<path d="M51.9807 89.8519L37.4297 75.3059L42.8637 69.8719L51.6927 78.6999L85.2827 41.4409L90.9897 46.5859L51.9807 89.8519Z" fill="white"/>
</g>
<defs>
<clipPath id="clip0_840_2">
<rect width="128.284" height="128.284" fill="white"/>
</clipPath>
</defs>
</svg>
