<svg width="30" height="43" viewBox="0 0 30 43" fill="none" xmlns="http://www.w3.org/2000/svg">
<path d="M12.9902 9.56178e-05C9.23023 -0.0199044 5.96023 3.1001 5.99023 7.0001V8.0001V11.7481C5.46042 12.2254 5 13.0005 5 14.0118C5 15.2766 5.71828 16.1915 6.39453 16.586C6.75603 16.7969 6.85839 16.7577 7.11523 16.8106C8.6172 19.9275 11.5305 22.5513 14.8574 22.9942L14.9902 23.0118L15.123 22.9942C18.4497 22.5502 21.3632 19.9266 22.8652 16.8106C23.1221 16.7577 23.2244 16.7969 23.5859 16.586C24.2622 16.1915 24.9805 15.2766 24.9805 14.0118C24.9805 12.747 24.2622 11.8302 23.5859 11.4356C23.2873 11.2614 23.2229 11.3043 22.9902 11.2481V6.0001C22.9902 3.7911 21.1992 2.0001 18.9902 2.0001H17.9902V2.00986C17.9902 2.00986 16.9702 9.56178e-05 12.9902 9.56178e-05ZM15.4355 8.0001H15.9902H17.9902C19.6205 8.0001 20.9401 9.30193 20.9824 10.922V13.0138H22.1328C22.1386 13.0144 22.3583 13.0359 22.5781 13.1642C22.8009 13.2941 22.9805 13.3786 22.9805 14.0118C22.9805 14.645 22.8009 14.7276 22.5781 14.8575C22.3554 14.9875 22.127 15.0099 22.127 15.0099L21.5098 15.045L21.2656 15.6114C20.1189 18.2562 17.4708 20.5692 14.9902 20.9688C12.5099 20.57 9.86158 18.2571 8.71484 15.6114L8.4707 15.045L7.85352 15.0099C7.85352 15.0099 7.6251 14.9875 7.40234 14.8575C7.17959 14.7276 7 14.645 7 14.0118C7 13.3786 7.17959 13.2941 7.40234 13.1642C7.62221 13.0359 7.84186 13.0144 7.84766 13.0138H8.99805V10.0001H11.9902C13.4672 10.0001 14.7425 9.1911 15.4355 8.0001Z" fill="black"/>
<ellipse cx="15" cy="34" rx="15" ry="9" fill="black"/>
</svg>
