<svg width="129" height="129" viewBox="0 0 129 129" fill="none" xmlns="http://www.w3.org/2000/svg">
<g clip-path="url(#clip0_840_8)">
<path d="M127.476 66.4937L124.648 70.1521C124.231 70.691 123.964 71.3313 123.876 72.0074C123.787 72.6834 123.881 73.3707 124.146 73.9989L125.943 78.2572C126.275 79.0438 126.335 79.9187 126.115 80.7435C125.894 81.5684 125.405 82.2964 124.725 82.8125L121.032 85.6084C120.49 86.0202 120.066 86.5688 119.805 87.1982C119.544 87.8275 119.456 88.5148 119.548 89.1898L120.176 93.7733C120.293 94.6191 120.125 95.4797 119.698 96.2192C119.272 96.9588 118.611 97.5351 117.82 97.8573L113.532 99.5883C112.9 99.8452 112.348 100.266 111.933 100.806C111.517 101.347 111.253 101.989 111.168 102.665L110.582 107.258C110.475 108.104 110.09 108.89 109.487 109.493C108.884 110.096 108.098 110.481 107.252 110.588L102.662 111.168C101.986 111.254 101.345 111.518 100.804 111.933C100.264 112.349 99.8434 112.901 99.5866 113.532L97.8493 117.809C97.5271 118.6 96.9508 119.261 96.2112 119.687C95.4717 120.114 94.6111 120.282 93.7653 120.165L89.1818 119.537C88.5069 119.445 87.8195 119.534 87.1902 119.794C86.5609 120.055 86.0122 120.479 85.6005 121.021L82.8124 124.721C82.2963 125.401 81.5683 125.89 80.7434 126.11C79.9185 126.331 79.0437 126.27 78.2571 125.938L73.9988 124.138C73.3706 123.873 72.6833 123.78 72.0073 123.868C71.3312 123.956 70.6909 124.223 70.152 124.64L66.4936 127.468C65.8197 127.991 64.9907 128.275 64.1375 128.275C63.2842 128.275 62.4553 127.991 61.7813 127.468L58.123 124.64C57.5841 124.223 56.9437 123.956 56.2677 123.868C55.5917 123.78 54.9043 123.873 54.2762 124.138L50.0178 125.935C49.2312 126.267 48.3564 126.327 47.5315 126.107C46.7066 125.887 45.9787 125.398 45.4626 124.717L42.6682 121.034C42.2565 120.491 41.7078 120.068 41.0785 119.807C40.4492 119.546 39.7618 119.457 39.0869 119.55L34.5034 120.178C33.6576 120.295 32.797 120.127 32.0574 119.7C31.3179 119.273 30.7415 118.612 30.4194 117.822L28.6774 113.54C28.4204 112.908 27.9999 112.356 27.4592 111.941C26.9184 111.525 26.2768 111.261 25.6002 111.176L21.023 110.584C20.1771 110.477 19.3909 110.092 18.788 109.489C18.1851 108.886 17.7999 108.099 17.693 107.254L17.1134 102.664C17.0276 101.988 16.7634 101.346 16.348 100.806C15.9326 100.265 15.3808 99.8451 14.7494 99.5883L10.4659 97.8494C9.67519 97.5273 9.01435 96.9509 8.58768 96.2113C8.16102 95.4718 7.99285 94.6112 8.10972 93.7654L8.73803 89.1819C8.83032 88.507 8.7415 87.8196 8.48066 87.1903C8.21983 86.561 7.79636 86.0123 7.25365 85.6006L3.56549 82.8125C2.88526 82.2964 2.39633 81.5684 2.17588 80.7435C1.95544 79.9187 2.01605 79.0438 2.34814 78.2572L4.1451 73.9989C4.41015 73.3707 4.50329 72.6834 4.41496 72.0074C4.32663 71.3313 4.06 70.691 3.64245 70.1521L0.815069 66.4937C0.291827 65.8198 0.0078125 64.9908 0.0078125 64.1376C0.0078125 63.2844 0.291827 62.4554 0.815069 61.7814L3.64245 58.1231C4.06 57.5842 4.32663 56.9438 4.41496 56.2678C4.50329 55.5918 4.41015 54.9044 4.1451 54.2763L2.34657 50.0242C2.01448 49.2376 1.95387 48.3628 2.17431 47.5379C2.39476 46.713 2.88369 45.9851 3.56392 45.469L7.24737 42.6746C7.79007 42.2628 8.21354 41.7142 8.47438 41.0849C8.73522 40.4556 8.82404 39.7682 8.73175 39.0932L8.10344 34.5097C7.98656 33.664 8.15474 32.8034 8.5814 32.0638C9.00806 31.3243 9.66891 30.7479 10.4596 30.4257L14.7494 28.69C15.3836 28.4336 15.9378 28.0124 16.3547 27.47C16.7717 26.9277 17.0363 26.2839 17.1212 25.6051L17.7008 21.0153C17.8077 20.1694 18.193 19.3831 18.7958 18.7802C19.3987 18.1774 20.185 17.7921 21.0309 17.6852L25.6207 17.1056C26.2972 17.0201 26.9388 16.7561 27.4796 16.3406C28.0204 15.9252 28.4408 15.3733 28.6978 14.7416L30.4398 10.4597C30.7619 9.66901 31.3383 9.00817 32.0779 8.58151C32.8174 8.15484 33.678 7.98667 34.5238 8.10354L39.1073 8.73185C39.7822 8.82414 40.4696 8.73532 41.0989 8.47449C41.7282 8.21365 42.2769 7.79018 42.6886 7.24747L45.483 3.56402C45.9991 2.8838 46.7271 2.39486 47.5519 2.17442C48.3768 1.95397 49.2517 2.01458 50.0383 2.34667L54.2966 4.14363C54.9247 4.40869 55.6121 4.50183 56.2881 4.4135C56.9641 4.32516 57.6045 4.05854 58.1434 3.64099L61.8017 0.813604C62.4757 0.290363 63.3047 0.00634766 64.1579 0.00634766C65.0111 0.00634766 65.8401 0.290363 66.5141 0.813604L70.1724 3.64099C70.7113 4.05854 71.3517 4.32516 72.0277 4.4135C72.7037 4.50183 73.3911 4.40869 74.0192 4.14363L78.2775 2.34667C79.0641 2.01458 79.939 1.95397 80.7639 2.17442C81.5887 2.39486 82.3167 2.8838 82.8328 3.56402L85.6068 7.24904C86.0185 7.79175 86.5672 8.21522 87.1965 8.47606C87.8258 8.73689 88.5132 8.82571 89.1881 8.73342L93.7716 8.10511C94.6174 7.98824 95.478 8.15641 96.2175 8.58308C96.9571 9.00974 97.5334 9.67058 97.8556 10.4613L99.5866 14.7495C99.8436 15.3811 100.264 15.933 100.805 16.3485C101.346 16.7639 101.987 17.028 102.664 17.1135L107.254 17.6931C108.099 17.8 108.886 18.1852 109.489 18.7881C110.091 19.391 110.477 20.1773 110.584 21.0231L111.163 25.6129C111.249 26.2895 111.513 26.9311 111.928 27.4718C112.344 28.0126 112.896 28.4331 113.527 28.69L117.808 30.432C118.598 30.7542 119.259 31.3306 119.686 32.0701C120.112 32.8097 120.281 33.6703 120.164 34.516L119.535 39.0995C119.443 39.7745 119.532 40.4618 119.793 41.0912C120.054 41.7205 120.477 42.2691 121.02 42.6809L124.719 45.469C125.399 45.9851 125.888 46.713 126.109 47.5379C126.329 48.3628 126.268 49.2376 125.936 50.0242L124.138 54.2826C123.873 54.9107 123.78 55.5981 123.868 56.2741C123.956 56.9501 124.223 57.5905 124.64 58.1294L127.468 61.7877C127.991 62.4617 128.275 63.2906 128.275 64.1439C128.275 64.9971 127.991 65.8261 127.468 66.5" fill="#B72E2E"/>
<path d="M51.9797 89.8495L37.4297 75.2995L42.863 69.8662L51.6907 78.6939L85.28 41.4353L90.9866 46.5811L51.9797 89.8495Z" fill="white"/>
</g>
<defs>
<clipPath id="clip0_840_8">
<rect width="128.28" height="128.28" fill="white"/>
</clipPath>
</defs>
</svg>
